<svg id="Layer_1" data-name="Layer 1" xmlns="http://www.w3.org/2000/svg" viewBox="0 0 512 512"><title>comment_bubble</title><path d="M148.27,288.06c-.1-.07,10,2.72,6.61,13.19.33,3.06.59,6.13.77,9.21,2,2.68,3.77,5.47,5.45,8.21l-4.25,5.41c-.26.28-3.81-1.94-36.59-5.8-16.1-3-41.82-1.46-76.07-19.61-16.76-9.81-31.82-26.49-39.74-49.09-8.35-22.9-4.88-52.06,9.69-77.66.16.31,9.8-22.2,38.9-48.85,14.68-13.18,33-27.58,58.55-39.81,25-11.58,54.1-20.18,85.69-25.46-.14,1,57.44-13.78,145.66-2.06,42.78,7,97.88,19.7,138.9,63,19.31,22.2,32.44,50.32,29.81,82.53a80.51,80.51,0,0,1-20.39,44.27c-10.92,12.35-24.38,21.39-38,28.77-55.65,27.94-114.47,36.19-167.83,47.4-25.71,5.31-45,14.79-59.48,31.52-13.65,15.64-22.87,36.23-28,55.19a164.26,164.26,0,0,0-5.42,28.34c-.71,4.61-.76,9.14-1,13.57l-.16,3.32,0,.4c-57.48,11.92-16,3.17-28.85,5.78l-.1-.24-.41-.91-.83-1.85c-1-2.46-2.28-4.86-3.05-7.29-7.1-19.27-8.89-36.81-9.51-51.7-.92-29.91,3.22-49.94,4.85-57.78,1,0-9,32.72-1.14,84.44a146.19,146.19,0,0,0,5.1,20.15,96.1,96.1,0,0,0,4.07,10.53l1.2,2.67.6,1.35.14.34c-24,5,32.84-6.61,27-5.5l0-.15,0-.61.24-4.86a170.69,170.69,0,0,1,6.53-40.76c7.88-27.62,22.49-56.37,48.33-71.92,24.58-15.62,62.27-17.45,96.25-25.92,33.77-7.29,66.38-15.54,94.18-27.57,27.72-11.67,50.92-28.51,62.65-47C510.5,216.86,511,201.37,511,196.75c-.28-.12.58,9.69-6,25.46-6.2,15.94-23.2,34.89-47.08,48-47.66,27.2-117.41,38.16-182.92,51.64-31,7.22-54,26.35-67.21,52.93-13.71,25.62-19.35,53.51-20.16,77.79l-.07,1.14,0,.29c-9.54,2,21.32-4.24-21.38,4.49l-.07-.15-.27-.62-1.05-2.42-2.07-4.81c-1.2-3.19-2.21-6.36-3.27-9.44a166.92,166.92,0,0,1-4-17.89,210.19,210.19,0,0,1-2.43-30.51c.08-17.67,1.81-29.72,2.78-34.5,1,0-6.86,30.46,4,77.47a107.91,107.91,0,0,0,6.32,18l1,2.31.52,1.15.25.59c-3.83.87,33.65-6.85,17.78-3.65v-.43l.22-4.52c.19-3,.17-6.11.51-9.22A200.74,200.74,0,0,1,194,401.12c8.53-26.07,22.95-53.47,48.49-69.16,24.82-15.92,59.8-17.93,91.8-25.73,31.79-6.89,62.45-14.42,88.72-24.82,26.26-10.15,48.23-23.65,61.33-38.64,13.41-14.94,16.63-29.4,17.36-35.16-.13-.1-1.19,7.9-8.06,20s-21.4,26.48-42,37.59c-41.33,22.89-102.7,34.52-164.27,45.94-30.62,4.89-58.65,18.67-75.62,41.58-17,22.72-26.06,48.76-30.4,72.36C180.3,431,179.6,436.79,179,442.4l-.51,8.3-.14,2-.07,1V454c-1.7.37,3.77-.67-3.79.88l-.06-.12-.21-.49-1.59-3.79a120.26,120.26,0,0,1-7.7-28.08A153.39,153.39,0,0,1,163.48,386a186.69,186.69,0,0,0,4.17,44.58,121.1,121.1,0,0,0,5.5,17.42l1.84,4.19c.66.61-.17,1.57,1.71,1.85l.1-2.19c.14-2.93.26-5.77.4-8.53a240,240,0,0,1,3.26-25.91,164,164,0,0,0-3.5,19.35,95.43,95.43,0,0,0-1,9.78l-.35,4.91-.18,2.47c3.07-.84.31-1.55.76-2.32l.82,1.8c-3.32,1.32-.88-.77-1.59-1l.13-4,.34-7.92c.65-5.27,1-10.54,1.91-15.75a184.82,184.82,0,0,1,7.59-30.9c3.93-11.68,9.9-22.62,16.24-33.26.14,0-14.12,21.28-20.87,46.5a204.92,204.92,0,0,0-7.19,35.77c-.23,2.59-.45,5-.65,7.2-.11,1.09-.22,2.17-.33,3.13l-.07.72v.08l0,0c3.22-.65-7.18,1.52,7.2-1.45v0l0-.18-.13-.32-.44-1.19a57.49,57.49,0,0,1-2-6s-4.17-10.22-.93.08c.47,1.25,1.15,2.81,2,4.72l.65,1.52.36.81.19.43.1.2,0,.06v0c1.46-.29-12.57,2.57-6.63,1.34V454c.06-1.3.14-2.74.22-4.27a205.19,205.19,0,0,1,2.32-24.76c4.25-20.21,8.66-53.3,41-88.86-.36,1.22,19.73-24.79,74.22-33.06,26.32-4.83,58.7-10.92,95.88-21.19,18.47-5.32,38.21-11.86,57.42-22.12,18.89-10.07,38.3-25,46.06-46.94,7.33-21.86,1.4-47.54-12.66-68.86-14.09-21.7-37.66-31.38-64.82-42.49C357.71,79,290.56,74.85,222.75,83.74,188.89,88.6,154,96.91,122.29,112.15c-30.85,15.59-52.6,32.1-71.89,60.66-19.93,28.45-23.69,57.7-.68,83.32C70.37,282.26,103.34,281.78,148.27,288.06Z" fill="#e6e4e3"/></svg>