<svg id="Layer_1" data-name="Layer 1" xmlns="http://www.w3.org/2000/svg" viewBox="0 0 512 512"><title>folder</title><path d="M2.72,128.34S-6.5,126.51,9,126.61l12.43-.73,9.13-1.82,9.05.54s2.6,4.81,7.77,58.23a235.48,235.48,0,0,1,5.18,50.23s-2.68,209.1-8.15,224.82c0,0,7.81-131.13,5.34-139.38,0,0-6.4,125.37-11.34,135,0,0,7.32-121.62,1-132.44,0,0-6.73,112-13,125.49,0,0,2.51-21.47,1.73-27.22l-1.9,10,.28-16.11,1.44-9.31s-4.33,25.23-6.51,27c0,0,2.61,11.5,1.65-34C23.07,396.86,38.34,289.15,2.72,128.34Z" fill="#e6e4e3"/><path d="M44.09,165.26s-2.44,11.95-2.3-8.12l-1-16.11-2.45-11.79.72-11.73s6.45-3.35,78.05-10c0,0,28.63-6.72,67.3-6.72,0,0,280.22,3.49,301.28,10.54,0,0-175.7-10.1-186.8-6.89,0,0,168,8.27,180.93,14.66,0,0-163-9.47-177.48-1.28,0,0,150,8.71,168.18,16.86,0,0-28.78-3.25-36.48-2.27l13.42,2.48-21.6-.34-12.46-1.88s33.79,5.6,36.15,8.44c0,0,15.42-3.39-45.6-2.13C404,138.94,259.63,119.18,44.09,165.26Z" fill="#e6e4e3"/><path d="M450.79,131.79s-11.34-1.78,7.72-1.68l15.27-.71L485,127.6l11.11.51s3.2,4.72,9.56,57c0,0,6.35,20.92,6.35,49.15,0,0-3.27,204.65-10,220,0,0,9.59-128.3,6.54-136.42,0,0-7.84,122.71-13.92,132.14,0,0,9-119,1.21-129.62,0,0-8.28,109.57-16,122.82,0,0,3.08-21,2.14-26.64l-2.34,9.82.33-15.8,1.78-9.11s-5.3,24.67-8,26.42c0,0,3.22,11.26,2-33.33C475.78,394.6,494.5,289.21,450.79,131.79Z" fill="#e6e4e3"/><path d="M26.26,489.08s-2.55,8.3-2.39-5.65l-1-11.17-2.55-8.19.74-8.15s6.7-2.32,81.12-7a502.69,502.69,0,0,1,70-4.64s291.26,2.38,313.13,7.31c0,0-182.62-7-194.13-4.78,0,0,174.64,5.75,188.05,10.19,0,0-169.41-6.6-184.49-.91,0,0,155.93,6.06,174.8,11.71,0,0-29.92-2.26-37.91-1.56l14,1.71-22.48-.25-13-1.29s35.14,3.87,37.58,5.86c0,0,16-2.37-47.4-1.48C400.28,470.8,250.27,457.08,26.26,489.08Z" fill="#e6e4e3"/><path d="M77.81,133.94s3.48,3.55-3-1.5l-5.39-3.8-4.17-2.49L61.54,123c-.29-.2.54-1.56,5-16.61a56.15,56.15,0,0,1,2.82-14.77,236.46,236.46,0,0,0,8.36-31c3.54-16.31,4.36-33.14,5.39-35.28C84.64,25,77.31,64.58,77,67.08c.89.21,8.22-37.61,9.33-40.68,1.31,0-5.47,37.13-3.8,40.89.69.19,8.18-34.26,10.25-39,.06,0-1.2,6.94-.9,8.77L93,33.83,92.7,39l-.94,3c.09,0,2.65-8,3.76-8.66-.11,0-1.08-3.74-1.3,11.1-.1,0-2.37,8.59-4.68,23.55C86.33,83.27,86.85,103.71,77.81,133.94Z" fill="#e6e4e3"/><path d="M92.83,65.47S92,73.79,92,59.8l-.34-11.23-.83-8.22.24-8.18s2.2-2.35,26.71-7a58.48,58.48,0,0,1,23-4.7s95.89,2.41,103.1,7.35c0,0-60.13-7-63.92-4.81,0,0,57.5,5.78,61.9,10.25,0,0-55.76-6.63-60.72-.89,0,0,51.34,6.05,57.55,11.75,0,0-9.85-2.27-12.48-1.6l4.59,1.73L223.47,44l-4.26-1.32s11.56,3.9,12.37,5.89c0,0,5.28-2.37-15.61-1.48C216,47.11,166.58,33.33,92.83,65.47Z" fill="#e6e4e3"/><path d="M227,30.43s-4.91-.35,3.28-.72l6.56-.55,4.79-.76,4.81,0c.23,0,.87,1.31,6.05,14.85a42.88,42.88,0,0,1,5.81,12.5c-1.68.15,18.35,54.8,19.54,58.57-.66.78-12.19-34-13.56-35.87-.57.16,10.49,33.38,10.24,36.54-.64.43-11.46-32.06-15.11-33.89-.43.13,9,30.52,8.64,35.41,0,0-1.8-6.06-2.86-7.36l.42,3-2-4.2-.5-2.75s1.16,7.56.43,8.56c.09,0,2.6,2.39-3.62-9.28,0,0-1.62-7.84-6.84-20.35C248.19,71.06,238.58,55.56,227,30.43Z" fill="#e6e4e3"/><path d="M41.15,428s-2.45,3.4-2.31-2.32l-1-4.58-2.45-3.37.73-3.32s6.43-1,77.94-2.87c0,0,28.59-1.9,67.19-1.9,0,0,279.81,1,300.82,3,0,0-175.44-2.89-186.51-2,0,0,167.8,2.36,180.66,4.18,0,0-162.73-2.7-177.21-.38,0,0,149.8,2.49,167.92,4.81,0,0-28.74-.93-36.42-.66l13.4.71-21.58-.09-12.45-.54s33.75,1.59,36.12,2.42c0,0,15.38-1-45.54-.62C400.49,420.54,256.34,414.94,41.15,428Z" fill="#e6e4e3"/><path d="M41.18,387.84s-2.47,3.42-2.3-2.31l-1-4.58-2.45-3.36.72-3.34s6.46-1,78.29-2.86c0,0,28.7-1.9,67.48-1.9,0,0,281,1,302.15,3,0,0-176.22-2.88-187.33-2,0,0,168.51,2.34,181.46,4.17,0,0-163.45-2.69-178-.37,0,0,150.45,2.49,168.66,4.8,0,0-28.87-.93-36.59-.65l13.46.71-21.67-.1-12.51-.53s33.9,1.6,36.26,2.41c0,0,15.47-1-45.75-.6C402.06,380.36,257.3,374.72,41.18,387.84Z" fill="#e6e4e3"/></svg>