<svg id="Layer_1" data-name="Layer 1" xmlns="http://www.w3.org/2000/svg" viewBox="0 0 512 512"><title>ipad</title><path d="M46.08,49.45s-2.34,9.16-2.19-6.24l-.94-12.34-2.34-9,.69-9s6.16-2.58,74.51-7.71c0,0,27.32-5.15,64.23-5.15,0,0,267.48,2.67,287.56,8.09,0,0-167.7-7.74-178.27-5.29,0,0,160.38,6.35,172.7,11.26,0,0-155.57-7.27-169.42-1,0,0,143.2,6.69,160.53,12.93,0,0-27.49-2.5-34.82-1.73l12.81,1.88-20.64-.28L398.6,24.44s32.27,4.28,34.5,6.46c0,0,14.71-2.62-43.52-1.64C389.58,29.27,251.8,14.13,46.08,49.45Z" fill="#e6e4e3"/><path d="M56.24,509s-2.32,10.2-2.19-7l-.94-13.75-2.34-10.08.69-10s6.16-2.88,74.51-8.6c0,0,27.32-5.72,64.23-5.72,0,0,267.48,3,287.57,9,0,0-167.7-8.63-178.29-5.89,0,0,160.4,7.07,172.7,12.54,0,0-155.57-8.1-169.42-1.11,0,0,143.2,7.46,160.55,14.42,0,0-27.5-2.79-34.84-1.94L441.3,483l-20.65-.3-11.9-1.59s32.26,4.76,34.52,7.2c0,0,14.71-2.9-43.53-1.83C399.74,486.49,262,469.61,56.24,509Z" fill="#e6e4e3"/><path d="M475.08,487.72s9.11,2.69-6.19,2.52l-12.25,1.11-9,2.69-8.94-.79S436.15,486.13,431,407c0,0-5.12-31.63-5.12-74.33,0,0,2.64-309.46,8-332.72,0,0-7.69,194-5.25,206.27,0,0,6.31-185.54,11.18-199.8,0,0-7.2,180-1,196,0,0,6.63-165.68,12.84-185.75,0,0-2.49,31.79-1.72,40.29l1.87-14.81-.27,23.87L450.2,79.86s4.28-37.34,6.45-39.94c0,0-2.59-17-1.63,50.37C455,90.29,440,249.7,475.08,487.72Z" fill="#e6e4e3"/><path d="M82.46,483s9,2.58-6.08,2.42l-12,1-8.84,2.58-8.77-.76s-2.49-6.78-7.52-82c0,0-5-30.09-5-70.72,0,0,2.59-294.44,7.88-316.56,0,0-7.56,184.62-5.15,196.25,0,0,6.18-176.53,11-190.09,0,0-7.09,171.26-1,186.5,0,0,6.51-157.63,12.61-176.73,0,0-2.42,30.25-1.68,38.34l1.83-14.1-.27,22.72L58.06,95s4.21-35.54,6.33-38c0,0-2.56-16.19-1.6,47.92C62.79,104.9,48,256.58,82.46,483Z" fill="#e6e4e3"/><path d="M67.48,394s-2.12,4.88-2-3.34l-.84-6.58-2.12-4.82.62-4.8s5.57-1.38,67.37-4.12c0,0,24.73-2.74,58.1-2.74,0,0,241.89,1.42,260.06,4.32,0,0-151.65-4.13-161.22-2.82,0,0,145.05,3.38,156.19,6,0,0-140.71-3.89-153.23-.54,0,0,129.51,3.57,145.18,6.9,0,0-24.86-1.33-31.49-.92l11.58,1-18.65-.14-10.77-.77s29.19,2.29,31.22,3.45c0,0,13.31-1.38-39.37-.87C378.13,383.23,253.53,375.17,67.48,394Z" fill="#e6e4e3"/><path d="M62.54,379.27v86.28H443.3V379.27ZM272.1,439a43.83,43.83,0,0,1-3.55,4.93,26.43,26.43,0,0,0,2-2.25,30.41,30.41,0,0,1-5.84,6.35,27.3,27.3,0,0,1-4.19,2.64,29.06,29.06,0,0,0,5.69-3.8,33.5,33.5,0,0,0,4.11-4.28c.49-.65.81-1.13,1-1.43.88-1.27.07.09.07.09s-.55.67-1.09,1.34-1.21,1.55-2.19,2.66a28.18,28.18,0,0,1-10.82,7.44,27.36,27.36,0,0,1-10.18,1.46,29.25,29.25,0,0,1-11.87-3.08,28.76,28.76,0,0,1-12.14-11.33,29.82,29.82,0,0,1-3.18-20.53c.72-3.75,1.85-7.78,4.46-11.14a24,24,0,0,1,10.27-7.6A33.54,33.54,0,0,1,248,398.2c4.65.19,9.69,1.13,14.05,4.06a28.87,28.87,0,0,1,10.15,12.21,20.62,20.62,0,0,1,.47,16.19A13,13,0,0,1,271,437.1a32.7,32.7,0,0,1-6.6,8.39A24.41,24.41,0,0,1,253.82,451a26.55,26.55,0,0,1-21.93-4.93c-.45-.35-.76-.72-1.18-1.08-.1-.1-.24-.17-.35-.27s-.19-.23-.3-.33a29.39,29.39,0,0,1-5.91-7.86,25.08,25.08,0,0,0,5.59,7.89,27,27,0,0,0,19.83,7.45,24.82,24.82,0,0,0,11.31-3.4,27.51,27.51,0,0,0,8-7.39,22,22,0,0,0,4-7.34,14.75,14.75,0,0,0,.47-4.17,14,14,0,0,1-2.47,9.07c-3,5.2-8.94,11.26-16.85,13a27.37,27.37,0,0,1-21.54-4.17,30,30,0,0,1-8.67-9.32,26.13,26.13,0,0,0,5.44,7.24,28.23,28.23,0,0,0,18.53,7.63,26.29,26.29,0,0,0,19.71-8.34c4.51-4.8,6.67-9.64,6.93-11.49A17.17,17.17,0,0,1,272.1,439Z" fill="#e6e4e3"/><path d="M272.33,427.63s0,.1,0,.27A1.73,1.73,0,0,1,272.33,427.63Z" fill="#e6e4e3"/></svg>